<?xml version="1.0" encoding="iso-8859-1"?>
<!-- Generator: Adobe Illustrator 19.0.0, SVG Export Plug-In . SVG Version: 6.00 Build 0)  -->
<svg version="1.1" id="Layer_1" xmlns="http://www.w3.org/2000/svg" xmlns:xlink="http://www.w3.org/1999/xlink" x="0px" y="0px"
	 viewBox="0 0 295.668 295.668" style="enable-background:new 0 0 295.668 295.668;" xml:space="preserve">
<g>
	<g>
		<g>
			<path d="M269.038,75.741c0.183-0.714,0.29-1.459,0.29-2.231c0-4.971-4.029-9-9-9h-19.499c-4.971,0-9,4.029-9,9
				c0,0.397,0.035,0.785,0.084,1.169h-27.111V62.25c0-20.633-16.787-37.42-37.421-37.42h-39.096
				c-20.634,0-37.421,16.787-37.421,37.42v12.429h-27.11c0.05-0.384,0.084-0.772,0.084-1.169c0-4.971-4.029-9-9-9H35.34
				c-4.971,0-9,4.029-9,9c0,0.771,0.107,1.516,0.29,2.231C11.349,79.581,0,93.432,0,109.888V235.63
				c0,19.414,15.794,35.208,35.208,35.208H260.46c19.414,0,35.208-15.794,35.208-35.208V109.888
				C295.668,93.432,284.319,79.581,269.038,75.741z M108.865,62.25c0-10.708,8.712-19.42,19.421-19.42h39.096
				c10.709,0,19.421,8.712,19.421,19.42v12.429h-77.938V62.25z M277.668,235.63c0,9.488-7.72,17.208-17.208,17.208H35.208
				c-9.488,0-17.208-7.72-17.208-17.208V109.888c0-9.489,7.72-17.208,17.208-17.208H260.46c9.488,0,17.208,7.72,17.208,17.208
				V235.63z"/>
			<path d="M236.314,129.095H59.354c-4.971,0-9,4.029-9,9c0,4.971,4.029,9,9,9h176.961c4.971,0,9-4.029,9-9
				C245.315,133.124,241.285,129.095,236.314,129.095z"/>
			<path d="M236.314,164.645H59.354c-4.971,0-9,4.029-9,9c0,4.971,4.029,9,9,9h176.961c4.971,0,9-4.029,9-9
				C245.315,168.674,241.285,164.645,236.314,164.645z"/>
			<path d="M236.314,200.195H59.354c-4.971,0-9,4.029-9,9s4.029,9,9,9h176.961c4.971,0,9-4.029,9-9S241.285,200.195,236.314,200.195
				z"/>
		</g>
	</g>
</g>
<g>
</g>
<g>
</g>
<g>
</g>
<g>
</g>
<g>
</g>
<g>
</g>
<g>
</g>
<g>
</g>
<g>
</g>
<g>
</g>
<g>
</g>
<g>
</g>
<g>
</g>
<g>
</g>
<g>
</g>
</svg>
